<?xml version="1.0" encoding="UTF-8" standalone="no"?>
<svg width="159px" height="38px" viewBox="0 0 159 38" version="1.1" xmlns="http://www.w3.org/2000/svg" xmlns:xlink="http://www.w3.org/1999/xlink" xmlns:sketch="http://www.bohemiancoding.com/sketch/ns">
    <!-- Generator: Sketch 3.4.2 (15855) - http://www.bohemiancoding.com/sketch -->
    <title>ulke_logo</title>
    <desc>Created with Sketch.</desc>
    <defs></defs>
    <g id="Page-1" stroke="none" stroke-width="1" fill="none" fill-rule="evenodd" sketch:type="MSPage">
        <g id="ulke-redesign" sketch:type="MSArtboardGroup" transform="translate(-165.000000, -86.000000)" fill="#343433">
            <g id="ulke_logo" sketch:type="MSLayerGroup" transform="translate(165.000000, 86.000000)">
                <path d="M54.218601,24.535232 L54.218601,0.209152 L45.1761666,0.209152 L45.1761666,27.414416 C45.1761666,32.931712 49.8553095,37.906064 55.5756261,37.906064 L76.050099,37.906064 L76.050099,28.950224 L58.6856415,28.950224 C54.848462,28.950224 54.218601,26.814624 54.218601,24.535232" id="Fill-12" sketch:type="MSShapeGroup"></path>
                <path d="M138.024585,23.5372 L158.900855,23.5372 L158.900855,14.57984 L138.024585,14.57984 L138.024585,23.5372 Z" id="Fill-14" sketch:type="MSShapeGroup"></path>
                <path d="M119.612109,0.209304 L107.606995,0.209304 L92.2208288,17.57348 L92.2208288,0.209304 L83.1783944,0.209304 L83.1783944,37.906216 L92.2208288,37.906216 L92.2208288,31.149512 L97.1326396,25.618536 L108.197259,37.906216 L120.236445,37.906216 L103.096981,18.867304 L119.612109,0.209304 Z" id="Fill-16" sketch:type="MSShapeGroup"></path>
                <path d="M133.985678,0.209304 C128.412697,0.209304 123.390385,4.847128 123.390385,10.509736 L123.390385,27.611256 C123.390385,33.27052 128.412697,37.906216 133.985678,37.906216 L158.900794,37.906216 L158.900794,28.950376 L136.894334,28.950376 C134.587607,28.950376 132.434047,28.330216 132.434047,24.528392 L132.434047,13.592296 C132.434047,9.785304 134.587607,9.166664 136.894334,9.166664 L158.900794,9.166664 L158.900794,0.209304 L133.985678,0.209304 Z" id="Fill-17" sketch:type="MSShapeGroup"></path>
                <path d="M23.5544073,0.209152 L14.5104382,0.209152 L14.5104382,23.41408 L23.5544073,23.41408 L23.5544073,0.209152 Z" id="Fill-18" sketch:type="MSShapeGroup"></path>
                <path d="M0.00208725869,27.4143248 C0.00208725869,32.9352688 4.68307181,37.9062768 10.3972494,37.9062768 L27.6650178,37.9062768 C33.3853344,37.9062768 38.0635564,32.9352688 38.0635564,27.4143248 L38.0635564,0.2093648 L29.0202012,0.2093648 L29.0202012,24.5351408 C29.0202012,26.8145328 28.3940236,28.9504368 24.556844,28.9504368 L13.5094135,28.9504368 C9.67100618,28.9504368 9.04605637,26.8145328 9.04605637,24.5351408 L9.04605637,0.2093648 L0.00208725869,0.2093648 L0.00208725869,27.4143248 Z" id="Fill-19" sketch:type="MSShapeGroup"></path>
            </g>
        </g>
    </g>
</svg>