<svg width="40" height="40" viewBox="0 0 40 40" fill="none" xmlns="http://www.w3.org/2000/svg">
  <path fill-rule="evenodd" clip-rule="evenodd" d="M20 40C31.0457 40 40 31.0457 40 20C40 8.95435 31.0457 0 20 0C8.95435 0 0 8.95435 0 20C0 31.0457 8.95435 40 20 40ZM22.3723 14.1215C22.0129 14.4807 21.8333 14.9125 21.8333 15.4166V24.5834C21.8328 25.0869 22.012 25.5183 22.3713 25.8777C22.7307 26.2371 23.1626 26.4166 23.6667 26.4166C24.1702 26.4172 24.6016 26.2379 24.9609 25.8785C25.1777 25.662 25.3291 25.4189 25.415 25.1497C25.4717 24.9723 25.5 24.7836 25.5 24.5834V15.4166C25.5007 14.9131 25.3213 14.4817 24.9619 14.1223C24.6025 13.7629 24.1709 13.5834 23.6667 13.5834C23.3398 13.583 23.0432 13.6584 22.7771 13.8097C22.6333 13.8915 22.4983 13.9954 22.3723 14.1215ZM14.5 15.4166V24.5834C14.4993 25.0869 14.6787 25.5183 15.0381 25.8777C15.3975 26.2371 15.8291 26.4166 16.3333 26.4166C16.8369 26.4172 17.2683 26.2379 17.6277 25.8785C17.9871 25.5193 18.1667 25.0875 18.1667 24.5834V15.4166C18.1672 14.9131 17.988 14.4817 17.6287 14.1223C17.2693 13.7629 16.8374 13.5834 16.3333 13.5834C15.8298 13.5828 15.3984 13.7621 15.0391 14.1215C14.6797 14.4807 14.5 14.9125 14.5 15.4166Z" fill="white"/>
</svg>
