<svg width="56" height="56" viewBox="0 0 56 56" fill="none" xmlns="http://www.w3.org/2000/svg">
<circle cx="28" cy="28" r="28" fill="white"/>
<path fill-rule="evenodd" clip-rule="evenodd" d="M19.5 17C19.2239 17 19 17.2239 19 17.5V38.8529C19 39.129 19.2239 39.3529 19.5 39.3529H25.2059C25.482 39.3529 25.7059 39.129 25.7059 38.8529V17.5C25.7059 17.2239 25.482 17 25.2059 17H19.5ZM31.7943 17C31.5181 17 31.2943 17.2239 31.2943 17.5V38.8529C31.2943 39.129 31.5181 39.3529 31.7943 39.3529H37.5001C37.7763 39.3529 38.0001 39.129 38.0001 38.8529V17.5C38.0001 17.2239 37.7763 17 37.5001 17H31.7943Z" fill="#00A3C0"/>
</svg>
