<svg width="117" height="40" viewBox="0 0 117 40" fill="none" xmlns="http://www.w3.org/2000/svg">
  <g clip-path="url(#clip0_1_9486)">
    <path d="M117 34.1816C117 37.0955 114.69 39.45 111.83 39.45H5.1695C2.31026 39.45 0 37.0955 0 34.1816V5.71833C0 2.8044 2.31026 0.449951 5.1695 0.449951H111.83C114.69 0.449951 117 2.8044 117 5.71833V34.1816V34.1816Z" fill="black"/>
    <path d="M33.51 16.6045L28.5922 31.314H30.8338L32.2977 26.7916H37.0555L38.5652 31.314H40.8754L35.9576 16.6045H33.51V16.6045ZM34.6766 19.0056C34.8367 19.6583 35.0197 20.3343 35.2485 21.0803L36.5751 24.9733H32.801L34.1048 21.0337C34.3106 20.4276 34.4936 19.7282 34.6766 19.0056Z" fill="white"/>
    <path d="M47.2339 20.4045C45.7471 20.4045 44.5576 20.9873 43.7571 22.1063L43.6656 20.6377H41.6755L41.6984 20.8241C41.767 21.7333 41.7899 22.7357 41.7899 24.181V35.5336H43.9858V30.242C44.672 31.0579 45.7471 31.5474 46.9823 31.5474C48.2632 31.5474 49.4298 31.0345 50.299 30.1021C51.2597 29.0764 51.7629 27.5845 51.7629 25.8128C51.7629 24.2509 51.3283 22.8989 50.482 21.8965C49.6357 20.9407 48.492 20.4045 47.2339 20.4045ZM46.6849 22.2461C48.6292 22.2461 49.4984 24.0877 49.4984 25.906C49.4984 28.2605 48.3776 29.7058 46.5934 29.7058C45.3811 29.7058 44.306 28.8666 44.0087 27.6311C43.9629 27.4446 43.9401 27.1882 43.9401 26.9084V25.1134C43.9401 24.9503 43.9858 24.7638 44.0087 24.554C44.0087 24.484 44.0315 24.4374 44.0315 24.3675C44.3747 23.132 45.4497 22.2461 46.6849 22.2461Z" fill="white"/>
    <path d="M58.4883 20.4045C57.0015 20.4045 55.812 20.9873 55.0115 22.1063L54.92 20.6377H52.9299V20.8241C52.9986 21.7333 53.0214 22.7357 53.0214 24.181V35.5336H55.2173V30.242C55.9035 31.0579 56.9786 31.5474 58.2138 31.5474C59.4947 31.5474 60.6613 31.0345 61.5305 30.1021C62.4912 29.0764 62.9944 27.5845 62.9944 25.8128C62.9944 24.2509 62.5598 22.8989 61.7135 21.8965C60.89 20.9407 59.7464 20.4045 58.4883 20.4045ZM57.9393 22.2461C59.8836 22.2461 60.7528 24.0877 60.7528 25.906C60.7528 28.2605 59.632 29.7058 57.8478 29.7058C56.6355 29.7058 55.5604 28.8666 55.2631 27.6311C55.2173 27.4446 55.1944 27.1882 55.1944 26.9084V25.1134C55.1944 24.9503 55.2402 24.7638 55.2631 24.554C55.2631 24.484 55.2859 24.4374 55.2859 24.3675C55.6291 23.132 56.7041 22.2461 57.9393 22.2461Z" fill="white"/>
    <path d="M72.5785 22.8287C70.5427 22.0128 69.8794 21.3834 69.8794 20.2178C69.8794 19.2388 70.6571 18.2364 72.3726 18.2364C73.7908 18.2364 74.7058 18.7492 74.9345 18.8891L75.1175 19.0056L75.7351 17.1407L75.6207 17.0708C75.2547 16.861 74.2025 16.3481 72.4412 16.3481C69.6506 16.3481 67.7063 18.0266 67.7063 20.4276C67.7063 22.3625 68.9187 23.7146 71.5492 24.6936C73.4019 25.393 74.0882 26.1156 74.0882 27.3744C74.0882 28.7731 73.0131 29.659 71.3204 29.659C70.1996 29.659 69.0559 29.3326 68.1638 28.7498L67.9808 28.6333L67.3861 30.5448L67.5005 30.6147C68.3239 31.1742 69.8794 31.5938 71.1832 31.5938C74.9345 31.5938 76.2612 29.2627 76.2612 27.2579C76.2612 25.1599 75.209 23.8777 72.5785 22.8287Z" fill="white"/>
    <path d="M80.1955 18.0964L78.0453 18.7725V20.6141H76.467V22.3857H78.0453V27.8406C78.0453 29.1694 78.297 30.0785 78.8002 30.6613C79.2805 31.1975 80.0354 31.5005 80.9046 31.5005C81.728 31.5005 82.3228 31.3373 82.5973 31.2441L82.7116 31.1974L82.5973 29.4258L82.3914 29.4957C82.1169 29.589 81.8424 29.6123 81.3849 29.6123C80.5386 29.6123 80.1726 29.0761 80.1726 27.794V22.4324H82.8031V20.6607H80.1726V18.0964H80.1955Z" fill="white"/>
    <path d="M88.2473 20.4044C85.1822 20.4044 83.0549 22.7356 83.0549 26.0691C83.0549 29.3094 85.1136 31.5473 88.0872 31.5473H88.1101C90.6033 31.5473 93.3024 29.7756 93.3024 25.8826C93.3024 24.2974 92.8221 22.9454 91.9071 21.943C90.9922 20.9406 89.7341 20.4044 88.2473 20.4044ZM88.1787 22.1761C90.1458 22.1761 91.0379 24.1342 91.0379 25.9525C91.0379 28.1904 89.8256 29.7989 88.1329 29.7989H88.1101C86.4631 29.7989 85.2508 28.2137 85.2508 25.9992C85.2737 24.0876 86.1658 22.1761 88.1787 22.1761Z" fill="white"/>
    <path d="M99.9817 20.5209L99.8445 20.4975C99.6615 20.4509 99.5014 20.4276 99.2955 20.4276C98.1518 20.4276 97.1225 21.1036 96.5507 22.2226L96.482 20.6607H94.5149L94.5378 20.8472C94.6064 21.7331 94.6293 22.7121 94.6293 24.0642L94.6064 31.3374H96.8023V25.6261C96.8023 25.323 96.8252 25.02 96.8709 24.7635C97.1225 23.4115 98.0146 22.5256 99.1812 22.5256C99.4099 22.5256 99.57 22.549 99.7759 22.5723L100.005 22.5956V20.5209H99.9817Z" fill="white"/>
    <path d="M104.9 20.3809C101.995 20.3809 99.9592 22.7586 99.9592 26.1388C99.9592 29.4024 101.972 31.5237 105.106 31.5237C106.753 31.5237 107.896 31.1507 108.56 30.8477L108.697 30.7778L108.285 29.1226L108.102 29.1926C107.508 29.449 106.707 29.6821 105.357 29.6821C104.397 29.6821 102.224 29.3558 102.086 26.4418L109.132 26.4651L109.155 26.3253C109.2 26.0922 109.223 25.7891 109.223 25.3928C109.246 23.1083 108.102 20.3809 104.9 20.3809ZM104.763 22.0826C105.426 22.0826 105.975 22.2924 106.364 22.712C106.982 23.3647 107.096 24.3205 107.119 24.7867H102.132C102.338 23.4813 103.116 22.0826 104.763 22.0826Z" fill="white"/>
    <path d="M20.1976 7.11694H10.6821C9.53837 7.11694 8.62341 8.0494 8.62341 9.21497V30.7547C8.62341 31.9203 9.53837 32.8527 10.6821 32.8527H20.2205C21.3642 32.8527 22.2791 31.9203 22.2791 30.7547V9.23828C22.2791 8.07271 21.3413 7.11694 20.1976 7.11694ZM14.2504 9.37815H17.224C17.3841 9.37815 17.5214 9.51802 17.5214 9.6812C17.5214 9.84438 17.3841 9.98425 17.224 9.98425H14.2504C14.0903 9.98425 13.953 9.84438 13.953 9.6812C13.953 9.51802 14.0903 9.37815 14.2504 9.37815ZM15.4398 31.3142C14.685 31.3142 14.0674 30.6848 14.0674 29.9155C14.0674 29.1462 14.685 28.5168 15.4398 28.5168C16.1947 28.5168 16.8123 29.1462 16.8123 29.9155C16.8123 30.6848 16.1947 31.3142 15.4398 31.3142ZM21.1126 27.8175H9.76711V11.2431H21.0897V27.8175H21.1126Z" fill="white"/>
    <path d="M29.1415 12.7349V7.74622H29.7819V9.79762H32.3438V7.74622H32.9843V12.7582H32.3438V10.3804H29.7819V12.7349H29.1415Z" fill="white"/>
    <path d="M34.1053 12.7349V7.74622H37.6508V8.329H34.7458V9.86755H37.4678V10.4503H34.7458V12.1521H37.7652V12.7349H34.1053V12.7349Z" fill="white"/>
    <path d="M38.6338 12.7349V7.74622H39.6174L40.7839 11.2896C40.8983 11.6159 40.9669 11.8723 41.0127 12.0355C41.0584 11.849 41.1499 11.5926 41.2643 11.2429L42.4309 7.76953H43.3001V12.7815H42.6825V8.58543L41.2643 12.7815H40.6696L39.2514 8.51549V12.7815H38.6338V12.7349Z" fill="white"/>
    <path d="M44.3982 12.735V7.74634H47.9436V8.32912H45.0387V9.86768H47.7607V10.4505H45.0387V12.1522H48.058V12.735H44.3982V12.735Z" fill="white"/>
    <path d="M48.9513 12.735V7.74634H49.6146L52.1994 11.686V7.74634H52.817V12.7583H52.1536L49.5689 8.81866V12.7583H48.9513V12.735Z" fill="white"/>
    <path d="M55.8812 7.41979V6.65051H56.6361V7.41979H55.8812ZM55.927 12.7348V7.74615H56.5674V12.7581H55.927V12.7348Z" fill="white"/>
    <path d="M57.7108 12.7349V7.74622H58.3742L60.9589 11.6858V7.74622H61.5765V12.7582H60.9132L58.3284 8.81854V12.7582H57.7108V12.7349Z" fill="white"/>
    <path d="M62.6744 12.7349V7.74622H64.3671C64.756 7.74622 65.0304 7.76953 65.2363 7.81615C65.5108 7.88608 65.7624 8.00264 65.9454 8.16582C66.197 8.39894 66.4029 8.67867 66.5172 9.02834C66.6545 9.37801 66.7002 9.77431 66.7002 10.2172C66.7002 10.5902 66.6545 10.9399 66.563 11.2196C66.4715 11.4994 66.3571 11.7558 66.2199 11.9423C66.0826 12.1288 65.9454 12.2919 65.7624 12.3852C65.5794 12.4784 65.3964 12.5717 65.1677 12.6416C64.939 12.6882 64.6645 12.7349 64.3671 12.7349H62.6744ZM63.3378 12.1521H64.39C64.7102 12.1521 64.9618 12.1288 65.1448 12.0588C65.3278 11.9889 65.4651 11.919 65.5794 11.8024C65.7395 11.6392 65.8539 11.4294 65.9454 11.173C66.0369 10.9166 66.0826 10.5902 66.0826 10.2172C66.0826 9.70437 65.9911 9.28477 65.831 9.00503C65.6709 8.7253 65.4651 8.5388 65.2134 8.44556C65.0304 8.37562 64.756 8.35231 64.3671 8.35231H63.3378V12.1521V12.1521Z" fill="white"/>
    <path d="M67.7067 7.41979V6.65051H68.4615V7.41979H67.7067ZM67.7524 12.7348V7.74615H68.3929V12.7581H67.7524V12.7348Z" fill="white"/>
    <path d="M69.5601 12.7349V7.74622H71.7331C72.1677 7.74622 72.5108 7.79284 72.7395 7.88608C72.9683 7.97933 73.1513 8.14251 73.2885 8.35231C73.4258 8.56212 73.4944 8.84185 73.4944 9.09828C73.4944 9.44795 73.38 9.751 73.1513 10.0074C72.9225 10.2638 72.5794 10.4037 72.0991 10.4737C72.2821 10.5669 72.3964 10.6368 72.4879 10.7301C72.6709 10.9166 72.8539 11.1264 73.0369 11.4061L73.8832 12.7582H73.0598L72.4193 11.7092C72.2363 11.4061 72.0762 11.173 71.9389 11.0098C71.8017 10.8466 71.7102 10.7301 71.6187 10.6835C71.5272 10.6135 71.4128 10.5669 71.3213 10.5436C71.2527 10.5203 71.1384 10.5203 70.9554 10.5203H70.2005V12.7349H69.5601ZM70.2005 9.93749H71.5958C71.8932 9.93749 72.1219 9.91418 72.2821 9.84424C72.4422 9.77431 72.5794 9.68106 72.6709 9.5412C72.7624 9.40133 72.8082 9.26146 72.8082 9.09828C72.8082 8.86516 72.7167 8.65536 72.5565 8.51549C72.3964 8.37562 72.1219 8.28238 71.756 8.28238H70.2005V9.93749Z" fill="white"/>
    <path d="M74.5696 7.41979V6.65051H75.3244V7.41979H74.5696ZM74.6153 12.7348V7.74615H75.2558V12.7581H74.6153V12.7348Z" fill="white"/>
    <path d="M76.3993 12.735V7.74634H77.0626L79.6474 11.686V7.74634H80.265V12.7583H79.6017L77.0169 8.81866V12.7583H76.3993V12.735Z" fill="white"/>
  </g>
  <defs>
    <clipPath id="clip0_1_9486">
      <rect width="117" height="39" fill="white" transform="translate(0 0.449951)"/>
    </clipPath>
  </defs>
</svg>
