<svg width="117" height="39" viewBox="0 0 117 39" fill="none" xmlns="http://www.w3.org/2000/svg">
  <path d="M116.878 33.2032C116.878 36.0568 114.572 38.3625 111.718 38.3625H5.26841C2.41482 38.3625 0.109131 36.0568 0.109131 33.2032V5.32944C0.109131 2.47586 2.41482 0.170166 5.26841 0.170166H111.718C114.572 0.170166 116.878 2.47586 116.878 5.32944V33.2032V33.2032Z" fill="black"/>
  <path d="M8.8761 7.52039V20.4642V33.3852L21.9113 20.4642L8.8761 7.52039Z" fill="url(#paint0_linear_1_9516)"/>
  <path d="M25.404 16.9721L20.1535 13.9359L8.8761 7.42969V7.521L21.9113 20.4648L25.404 16.9721Z" fill="url(#paint1_linear_1_9516)"/>
  <path d="M8.8761 33.386V33.4773L20.1535 26.9711L25.404 23.9349L21.9113 20.465L8.8761 33.386Z" fill="url(#paint2_linear_1_9516)"/>
  <path d="M25.4036 16.972L21.9108 20.4648L25.4036 23.9348L31.4303 20.4648L25.4036 16.972Z" fill="url(#paint3_linear_1_9516)"/>
  <path d="M90.99 25.51C90.5106 25.51 90.054 25.4187 89.6431 25.2361C89.2322 25.0535 88.8897 24.7795 88.6158 24.3914H88.5245C88.5701 24.8252 88.6158 25.2361 88.6158 25.647V28.7517H87.4744V17.8624H88.4103L88.5701 18.8897H88.6158C88.9126 18.4788 89.255 18.182 89.6431 17.9994C90.0312 17.8168 90.4877 17.7255 90.99 17.7255C91.9944 17.7255 92.7478 18.0679 93.2957 18.7528C93.8436 19.4376 94.1175 20.3964 94.1175 21.6292C94.1175 22.8619 93.8436 23.8207 93.2957 24.5056C92.725 25.1676 91.9488 25.51 90.99 25.51ZM90.8073 18.6843C90.0312 18.6843 89.4833 18.8897 89.1409 19.3235C88.7984 19.7572 88.6158 20.4192 88.6158 21.3552V21.6063C88.6158 22.6565 88.7984 23.4098 89.1409 23.8664C89.4833 24.3229 90.054 24.5512 90.8302 24.5512C91.4694 24.5512 91.9944 24.2773 92.3597 23.7522C92.725 23.2272 92.9076 22.4967 92.9076 21.5835C92.9076 20.6475 92.725 19.917 92.3597 19.4148C91.9944 18.9354 91.4922 18.6843 90.8073 18.6843Z" fill="#F9F9F9"/>
  <path d="M96.7425 25.373H95.6011V14.6892H96.7425V25.373Z" fill="#F9F9F9"/>
  <path d="M103.295 25.3731L103.066 24.3001H103.021C102.655 24.7795 102.267 25.0991 101.902 25.2589C101.537 25.4187 101.057 25.51 100.51 25.51C99.7562 25.51 99.1855 25.3274 98.7518 24.9393C98.318 24.5512 98.1125 24.0033 98.1125 23.2957C98.1125 21.7661 99.3225 20.99 101.765 20.8986L103.044 20.853V20.3964C103.044 19.8029 102.907 19.3691 102.655 19.0952C102.404 18.8212 101.993 18.6843 101.446 18.6843C100.829 18.6843 100.099 18.8669 99.3225 19.255L98.98 18.3875C99.3453 18.182 99.7562 18.0222 100.19 17.9081C100.624 17.7939 101.08 17.7255 101.514 17.7255C102.404 17.7255 103.066 17.9309 103.5 18.319C103.934 18.7071 104.139 19.3463 104.139 20.2366V25.3731H103.295ZM100.715 24.5741C101.423 24.5741 101.971 24.3686 102.382 23.9805C102.792 23.5924 102.998 23.0445 102.998 22.3368V21.652L101.856 21.6976C100.943 21.7205 100.304 21.8803 99.8932 22.1314C99.4823 22.3825 99.2996 22.7706 99.2996 23.2957C99.2996 23.7066 99.4138 24.0262 99.6649 24.2316C99.916 24.4599 100.258 24.5741 100.715 24.5741Z" fill="#F9F9F9"/>
  <path d="M104.801 17.8623H106.011L107.654 22.1541C108.019 23.1357 108.248 23.8434 108.316 24.2772H108.362C108.43 24.0489 108.545 23.638 108.727 23.0901C108.91 22.5194 109.549 20.7844 110.599 17.8851H111.832L108.613 26.423C108.293 27.2677 107.928 27.8613 107.494 28.2265C107.061 28.5918 106.536 28.7516 105.919 28.7516C105.577 28.7516 105.234 28.7059 104.892 28.6374V27.7243C105.143 27.7699 105.417 27.8156 105.737 27.8156C106.513 27.8156 107.084 27.3819 107.403 26.4915L107.814 25.4186L104.801 17.8623Z" fill="#F9F9F9"/>
  <path d="M69.8728 18.5472C70.2381 18.8439 70.9914 19.4831 70.9914 20.6702C70.9914 21.8345 70.3294 22.3824 69.6674 22.9074C69.4619 23.1129 69.2336 23.3412 69.2336 23.6836C69.2336 24.026 69.4619 24.2087 69.6445 24.3685L70.2153 24.8022C70.9001 25.3958 71.5393 25.9208 71.5393 27.0166C71.5393 28.5005 70.1011 29.9843 67.4073 29.9843C65.1245 29.9843 64.0287 28.8885 64.0287 27.7243C64.0287 27.1536 64.3026 26.3546 65.2386 25.8067C66.2202 25.2131 67.5443 25.1218 68.252 25.0762C68.0237 24.8022 67.7726 24.5054 67.7726 24.0032C67.7726 23.7293 67.8411 23.5695 67.9324 23.3868C67.7498 23.4097 67.59 23.4097 67.4302 23.4097C65.7637 23.4097 64.8277 22.1769 64.8277 20.9442C64.8277 20.2136 65.1473 19.4146 65.8321 18.8439C66.7225 18.1134 67.7954 17.9764 68.6401 17.9764H71.8817L70.8773 18.5472H69.8728ZM68.7542 25.5327C68.6172 25.5099 68.5488 25.5099 68.389 25.5099C68.252 25.5099 67.4073 25.5327 66.7453 25.761C66.4029 25.8752 65.3984 26.2632 65.3984 27.3818C65.3984 28.5005 66.4942 29.2995 68.1607 29.2995C69.6674 29.2995 70.4664 28.5689 70.4664 27.6101C70.4664 26.8111 69.9641 26.3774 68.7542 25.5327ZM69.2108 22.5422C69.5761 22.1769 69.5989 21.6747 69.5989 21.4007C69.5989 20.2593 68.914 18.5015 67.6128 18.5015C67.2019 18.5015 66.7681 18.707 66.517 19.0266C66.2431 19.3462 66.1746 19.7799 66.1746 20.1908C66.1746 21.2409 66.791 22.9987 68.1378 22.9987C68.5488 22.9987 68.9597 22.7933 69.2108 22.5422Z" fill="#F9F9F9"/>
  <path d="M59.9653 25.2816C57.477 25.2816 56.1301 23.3412 56.1301 21.5834C56.1301 19.5288 57.8195 17.771 60.1936 17.771C62.4993 17.771 63.9375 19.5745 63.9375 21.4692C63.9604 23.3184 62.5222 25.2816 59.9653 25.2816ZM61.9286 24.0032C62.3167 23.501 62.408 22.8618 62.408 22.2682C62.408 20.8757 61.746 18.2504 59.8055 18.2504C59.2805 18.2504 58.7783 18.4559 58.3902 18.7755C57.7738 19.3233 57.6596 20.0082 57.6596 20.6931C57.6596 22.2454 58.4358 24.8022 60.3306 24.8022C60.947 24.825 61.5633 24.5054 61.9286 24.0032Z" fill="#F9F9F9"/>
  <path d="M51.4509 25.2816C48.9626 25.2816 47.6157 23.3412 47.6157 21.5834C47.6157 19.5288 49.305 17.771 51.6792 17.771C53.9849 17.771 55.4231 19.5745 55.4231 21.4692C55.4459 23.3184 54.0077 25.2816 51.4509 25.2816ZM53.4142 24.0032C53.8023 23.501 53.8936 22.8618 53.8936 22.2682C53.8936 20.8757 53.2316 18.2504 51.2911 18.2504C50.7661 18.2504 50.2638 18.4559 49.8758 18.7755C49.2594 19.3233 49.1452 20.0082 49.1452 20.6931C49.1452 22.2454 49.9214 24.8022 51.8162 24.8022C52.4326 24.825 53.0489 24.5054 53.4142 24.0032Z" fill="#F9F9F9"/>
  <path d="M46.4281 25.0304L44.168 25.5554C43.2549 25.6924 42.4331 25.8294 41.5656 25.8294C37.2053 25.8294 35.5388 22.6334 35.5388 20.1222C35.5388 17.0632 37.8902 14.2096 41.908 14.2096C42.7527 14.2096 43.5745 14.3466 44.3278 14.552C45.5149 14.8945 46.0628 15.2825 46.4053 15.5337L45.104 16.7892L44.5561 16.9262L44.9442 16.287C44.3963 15.7619 43.4375 14.8031 41.5656 14.8031C39.0773 14.8031 37.1825 16.6979 37.1825 19.4602C37.1825 22.4279 39.3284 25.213 42.7755 25.213C43.78 25.213 44.305 25.0075 44.7844 24.8249V22.2681L42.4102 22.4051L43.6658 21.7202H47.0216L46.6107 22.1083C46.4966 22.1996 46.4737 22.2453 46.4509 22.3594C46.4281 22.4964 46.4281 22.953 46.4281 23.1128V25.0304V25.0304Z" fill="#F9F9F9"/>
  <path d="M74.8736 24.5738C74.3486 24.5282 74.2344 24.4369 74.2344 23.8205V23.6378V14.8945C74.2344 14.8716 74.2344 14.826 74.2344 14.8032C74.3029 14.2553 74.4627 14.164 74.9421 13.8672H72.7049L71.5178 14.4379H72.7277V23.6607V24.1857C72.7277 24.5053 72.6593 24.551 72.294 25.0304H75.0791L75.6726 24.688C75.3987 24.6423 75.1476 24.6195 74.8736 24.5738Z" fill="#F9F9F9"/>
  <path d="M81.2864 24.7336C81.1038 24.8249 80.944 24.9391 80.7613 25.0076C80.2363 25.2359 79.7112 25.3043 79.2318 25.3043C78.7296 25.3043 77.9534 25.2815 77.1544 24.688C76.0358 23.9118 75.5564 22.5649 75.5564 21.3778C75.5564 18.958 77.5425 17.748 79.1405 17.748C79.7112 17.748 80.2819 17.885 80.7613 18.1818C81.5375 18.7069 81.743 19.3689 81.8571 19.7341L78.1817 21.2408L76.9718 21.3321C77.3599 23.3182 78.7068 24.4825 80.2134 24.4825C81.0125 24.4825 81.5832 24.2086 82.1311 23.9346L81.2864 24.7336ZM79.8254 20.0537C80.1221 19.9396 80.2819 19.8483 80.2819 19.62C80.2819 19.0036 79.5742 18.2731 78.7296 18.2731C78.0904 18.2731 76.9261 18.7525 76.9261 20.4418C76.9261 20.7158 76.9489 20.9897 76.9718 21.2637L79.8254 20.0537Z" fill="#F9F9F9"/>
  <path d="M82.8169 17.8851V18.9124H82.68V17.8851H82.3375V17.771H83.1365V17.8851H82.8169Z" fill="#F9F9F9"/>
  <path d="M84.2094 18.9124V17.8623L83.8898 18.9124H83.7985L83.4789 17.8623V18.9124H83.3647V17.771H83.5702L83.867 18.6841L84.1637 17.771H84.3692V18.9124H84.2094Z" fill="#F9F9F9"/>
  <path d="M36.9321 11.2191V6.31091H37.5713V8.31983H40.1281V6.31091H40.7673V11.2191H40.1281V8.89055H37.5713V11.1962H36.9321V11.2191Z" fill="white"/>
  <path d="M41.8632 11.2191V6.31091H45.4016V6.88163H42.5024V8.38832H45.219V8.95904H42.5024V10.6255H45.5157V11.1962H41.8632V11.2191Z" fill="white"/>
  <path d="M46.4054 11.2191V6.31091H47.387L48.5513 9.78087C48.6654 10.1005 48.7339 10.3516 48.7796 10.5114C48.8252 10.3288 48.9165 10.0776 49.0307 9.73521L50.1949 6.33374H51.0624V11.2419H50.4461V7.13274L49.0307 11.2419H48.4371L47.0218 7.06426V11.2419H46.4054V11.2191Z" fill="white"/>
  <path d="M52.1364 11.2191V6.31091H55.6748V6.88163H52.7756V8.38832H55.4922V8.95904H52.7756V10.6255H55.7889V11.1962H52.1364V11.2191Z" fill="white"/>
  <path d="M56.6787 11.2191V6.31091H57.3407L59.9204 10.1461V6.31091H60.5368V11.2191H59.8747L57.2951 7.36103V11.2191H56.6787Z" fill="white"/>
  <path d="M63.5957 6.01421V5.26086H64.349V6.01421H63.5957ZM63.6414 11.2191V6.31098H64.2806V11.2191H63.6414Z" fill="white"/>
  <path d="M65.4449 11.2191V6.31091H66.107L68.6866 10.169V6.31091H69.303V11.2191H68.641L66.0613 7.36103V11.2191H65.4449Z" fill="white"/>
  <path d="M70.3986 11.2191V6.31091H72.0879C72.476 6.31091 72.7499 6.33374 72.9554 6.3794C73.2293 6.44789 73.4804 6.56203 73.6631 6.72183C73.9142 6.95012 74.1196 7.22406 74.2338 7.56649C74.3708 7.90892 74.4164 8.29701 74.4164 8.73075C74.4164 9.09601 74.3708 9.43844 74.2794 9.71238C74.1881 9.98633 74.074 10.2374 73.937 10.4201C73.8 10.6027 73.6631 10.7625 73.4804 10.8538C73.2978 10.9451 73.1152 11.0364 72.8869 11.1049C72.6586 11.1506 72.3847 11.1962 72.0879 11.1962H70.3986V11.2191ZM71.0378 10.6255H72.0879C72.4075 10.6255 72.6586 10.6027 72.8412 10.5342C73.0239 10.4657 73.1608 10.3972 73.275 10.2831C73.4348 10.1233 73.5489 9.91784 73.6402 9.66672C73.7316 9.41561 73.7772 9.09601 73.7772 8.73075C73.7772 8.22852 73.6859 7.8176 73.5261 7.54366C73.3663 7.26972 73.1608 7.08709 72.9097 6.99577C72.7271 6.92729 72.4531 6.90446 72.0651 6.90446H71.0378V10.6255V10.6255Z" fill="white"/>
  <path d="M75.3988 6.01421V5.26086H76.1522V6.01421H75.3988ZM75.4445 11.2191V6.31098H76.0837V11.2191H75.4445Z" fill="white"/>
  <path d="M77.2462 11.2191V6.31091H79.4149C79.8487 6.31091 80.1911 6.35657 80.4194 6.44789C80.6477 6.5392 80.8303 6.699 80.9673 6.90446C81.1043 7.10992 81.1728 7.38386 81.1728 7.63497C81.1728 7.9774 81.0586 8.27418 80.8303 8.52529C80.602 8.77641 80.2596 8.91338 79.7802 8.98186C79.9628 9.07318 80.077 9.14167 80.1683 9.23298C80.3509 9.41561 80.5336 9.62107 80.7162 9.89501L81.5608 11.2191H80.739L80.0998 10.1918C79.9172 9.89501 79.7574 9.66672 79.6204 9.50692C79.4834 9.34712 79.3921 9.23298 79.3008 9.18732C79.2095 9.11884 79.0953 9.07318 79.004 9.05035C78.9355 9.02752 78.8214 9.02752 78.6388 9.02752H77.8854V11.1962H77.2462V11.2191ZM77.8854 8.47963H79.278C79.5747 8.47963 79.803 8.45681 79.9628 8.38832C80.1226 8.31983 80.2596 8.22852 80.3509 8.09155C80.4422 7.95458 80.4879 7.8176 80.4879 7.6578C80.4879 7.42952 80.3966 7.22406 80.2368 7.08709C80.077 6.95012 79.803 6.8588 79.4378 6.8588H77.8854V8.47963Z" fill="white"/>
  <path d="M82.2476 6.01421V5.26086H83.0009V6.01421H82.2476ZM82.2932 11.2191V6.31098H82.9324V11.2191H82.2932Z" fill="white"/>
  <path d="M84.0737 11.2191V6.31091H84.7358L87.3154 10.1461V6.31091H87.9318V11.2191H87.2697L84.6901 7.36103V11.2191H84.0737Z" fill="white"/>
  <defs>
    <linearGradient id="paint0_linear_1_9516" x1="15.3895" y1="7.5229" x2="15.3895" y2="33.3884" gradientUnits="userSpaceOnUse">
      <stop stop-color="#257CB0"/>
      <stop offset="0.2863" stop-color="#4A93B5"/>
      <stop offset="0.767" stop-color="#78BCBB"/>
      <stop offset="1" stop-color="#89CFBD"/>
    </linearGradient>
    <linearGradient id="paint1_linear_1_9516" x1="8.86806" y1="13.943" x2="25.4142" y2="13.943" gradientUnits="userSpaceOnUse">
      <stop stop-color="#52C1AD"/>
      <stop offset="1" stop-color="#DEE89A"/>
    </linearGradient>
    <linearGradient id="paint2_linear_1_9516" x1="17.141" y1="20.4566" x2="17.141" y2="33.4832" gradientUnits="userSpaceOnUse">
      <stop stop-color="#EC413D"/>
      <stop offset="0.1668" stop-color="#DA4452"/>
      <stop offset="0.5748" stop-color="#B0487A"/>
      <stop offset="0.8619" stop-color="#954A92"/>
      <stop offset="1" stop-color="#8A4A9D"/>
    </linearGradient>
    <linearGradient id="paint3_linear_1_9516" x1="26.6704" y1="16.9827" x2="26.6704" y2="23.9298" gradientUnits="userSpaceOnUse">
      <stop stop-color="#F58879"/>
      <stop offset="0.1194" stop-color="#F69079"/>
      <stop offset="0.7128" stop-color="#FCB877"/>
      <stop offset="1" stop-color="#FEC874"/>
    </linearGradient>
  </defs>
</svg>
