<svg width="26" height="22" viewBox="0 0 26 22" fill="none" xmlns="http://www.w3.org/2000/svg">
  <path fill-rule="evenodd" clip-rule="evenodd" d="M0 1.83333C0 1.3471 0.195663 0.880788 0.543944 0.536971C0.892226 0.193155 1.3646 0 1.85714 0H24.1429C24.6354 0 25.1078 0.193155 25.4561 0.536971C25.8043 0.880788 26 1.3471 26 1.83333C26 2.31956 25.8043 2.78588 25.4561 3.1297C25.1078 3.47351 24.6354 3.66667 24.1429 3.66667H1.85714C1.3646 3.66667 0.892226 3.47351 0.543944 3.1297C0.195663 2.78588 0 2.31956 0 1.83333ZM11.1429 20.1667C11.1429 19.6804 11.3385 19.2141 11.6868 18.8703C12.0351 18.5265 12.5075 18.3333 13 18.3333H24.1429C24.6354 18.3333 25.1078 18.5265 25.4561 18.8703C25.8043 19.2141 26 19.6804 26 20.1667C26 20.6529 25.8043 21.1192 25.4561 21.463C25.1078 21.8068 24.6354 22 24.1429 22H13C12.5075 22 12.0351 21.8068 11.6868 21.463C11.3385 21.1192 11.1429 20.6529 11.1429 20.1667Z" fill="#FDFDFF"/>
  <path d="M0.543944 9.58579C0.195663 9.96086 0 10.4696 0 11C0 11.5304 0.195663 12.0391 0.543944 12.4142C0.892226 12.7893 1.3646 13 1.85714 13H24.1429C24.6354 13 25.1078 12.7893 25.4561 12.4142C25.8043 12.0391 26 11.5304 26 11C26 10.4696 25.8043 9.96086 25.4561 9.58579C25.1078 9.21071 24.6354 9 24.1429 9H1.85714C1.3646 9 0.892226 9.21071 0.543944 9.58579Z" fill="#00A3C0"/>
</svg>
