<svg width="56" height="56" viewBox="0 0 56 56" fill="none" xmlns="http://www.w3.org/2000/svg">
<circle cx="28" cy="28" r="27" stroke="#3D4C76" stroke-width="2"/>
<path d="M34.9146 33.2371C34.3909 33.2391 33.8729 33.3467 33.3919 33.5534C32.9109 33.7602 32.4766 34.0619 32.1153 34.4403L22.6365 29.7049C22.8697 28.9991 22.8697 28.2372 22.6365 27.5313L32.1308 22.7105C32.8109 23.426 33.7331 23.8635 34.7182 23.9379C35.7034 24.0123 36.6811 23.7185 37.4612 23.1134C38.2414 22.5082 38.7684 21.6352 38.9397 20.6638C39.111 19.6924 38.9144 18.6922 38.3881 17.8574C37.8619 17.0227 37.0435 16.4131 36.0921 16.1472C35.1408 15.8813 34.1244 15.978 33.2404 16.4185C32.3565 16.8591 31.6682 17.612 31.3094 18.531C30.9506 19.4499 30.9468 20.4693 31.2988 21.3908L21.8978 26.165C21.3901 25.5451 20.7027 25.0972 19.93 24.8826C19.1572 24.6679 18.3369 24.6972 17.5814 24.9663C16.826 25.2354 16.1724 25.7311 15.7102 26.3856C15.2481 27.0401 15 27.8212 15 28.622C15 29.4228 15.2481 30.2039 15.7102 30.8584C16.1724 31.5129 16.826 32.0087 17.5814 32.2778C18.3369 32.5468 19.1572 32.5761 19.93 32.3615C20.7027 32.1469 21.3901 31.6989 21.8978 31.079L31.2755 35.7911C31.117 36.2158 31.0354 36.6653 31.0344 37.1185C31.0344 37.8862 31.2625 38.6367 31.6897 39.275C32.1169 39.9133 32.7241 40.4108 33.4345 40.7045C34.1449 40.9983 34.9267 41.0752 35.6809 40.9254C36.435 40.7757 37.1278 40.406 37.6715 39.8631C38.2153 39.3203 38.5856 38.6287 38.7356 37.8758C38.8856 37.1228 38.8086 36.3424 38.5143 35.6332C38.2201 34.9239 37.7218 34.3177 37.0824 33.8912C36.443 33.4647 35.6913 33.2371 34.9224 33.2371H34.9146Z" fill="#3D4C76"/>
</svg>
